<?xml version="1.0" encoding="UTF-8"?>
<svg id="Ebene_1" data-name="Ebene 1" xmlns="http://www.w3.org/2000/svg" viewBox="0 0 262.07 63.64">
  <defs>
    <style>
      .cls-1 {
        fill: #213259;
      }

      .cls-1, .cls-2 {
        stroke-width: 0px;
      }

      .cls-2 {
        fill: #ef7a24;
      }
    </style>
  </defs>
  <path class="cls-1" d="m30.57,4.66c1.91,2.44,1.54,6.05-1.99,6.48.3,2.54-.78.25-1.9,1.12.5,1.51-2.94-.38-1.3,1.3-.32.91-1.14.04-1.64-.17-2.21,1.83-1.27.19-.78,2.42,0,0-1.04-.43-1.04-.43.1-.46-.14-.46-.52-.43-.21.94,1.11,1.34,0,2.07,8.1-2.1,7.01,10.08-.87,7.95-.35.65-.39-.03-.69-.26-.86,1.22-3.14.34-3.54,1.98,3.39.25.76,2.25-.6.43-.7.37-.09,1.32.09,1.81.69-.07,1,0,.86.78-1.74-.47-.84,4.65-.78,5.87.02.68-.83,3.18.52,2.85,0,0,0,.52,0,.52-1.32.19-.66,1.56-.26,2.33-.02.98-1.6,3.93.52,3.89-1.39.87-1.44,6.66-.26,7.43-1.3.28-.69,1.71-.26,2.51-.52.46-.32,3.78-.35,4.4.35,3.11-9.66,2.63-10.45,1.04-.2-9.25-1.32-20.53-1.04-29.54-.25-.42-.44-.82.09-1.12-.17-.75-.44-2.34-.35-3.11-.88.22-1.44-.29-1.64-1.12,0,0-1.9-1.21-1.9-1.21C0,21.57-1,16.94,2.84,16.06,2.2,1.53,20.84-5.21,30.57,4.66Zm-14.77,17.62c-.17.39.78.39.6,0,0,0-.6,0-.6,0Zm1.64,10.79c-.37.05-.98,0-1.21-.35.64-.11,1.47-.9,1.21.35Zm-1.04-8.9c.37.04,1.08-.16,1.04-.52-.26-.82-.75.37-1.04.52Zm.52,10.54c-.46.07-.59-.06-.52-.52.46-.07.59.06.52.52Zm1.3-14.34c-.2.59-1.36.08-.52,1.38,1.14-.42,2.13-3.73.52-1.38Zm0,1.38c-.67.59.51,1.26,1.12,1.04.17-.99-.2-1.15-1.12-1.04Zm-.26,2.68c-.06.45.33.61.6.26,0,0-.6-.26-.6-.26Zm.86-6.39c.26.51.54-.08.78-.26-.46-.63-.52-.24-.78.26Zm1.29-2.59c-.68.26-.62,1.31,0,.43.93.18.93-.61,0-.43Zm2.33-2.42c-.11.39-1.19.23-1.47.26-.14.53-.78,1.28.17,1.38.21-.48,2.37-1.29,1.29-1.64Zm6.91,0c-.39.2-.39-.98,0-.78,0,0,0,.78,0,.78Z"/>
  <path class="cls-1" d="m47.02,21.68c.9,1.11-.75,2.96.35,4.32-.86.51-1.52,2.2-1.73,3.11-3.07,1.1-4.11,6.34-6.56,6.56-.44.91-2.25,3.75-1.81,4.84.38.28,1.2.39.26.69-.66,1.71,2.17,2.32,1.55-.09.86.35,2.13.28,2.42,1.38.86.43.89-1.41,1.12-1.81.37.26.51.87.43,1.29.89-.5,1.16-.67,1.04.52-.72.05-1.92-.33-1.55.86,1.13-1.42,2.91,1.06,3.97,1.55-2.79.02-.13,1.65-1.64,2.68-.1.42.08.61.52.52.29.37-1.62.89-1.73,1.04-10.3.71-26.2,1.87-13.39-11.83,2.27-4.51,6.4-8.02,8.46-12.53.98.93.73-1.9,2.16-2.59,3.32-5.49,6.82-11.55,6.13-.52Zm-5.27,15.81c.02,1.3,1.33,1.35-.26,2.42-.12-.34-.63-1.02-.86-1.3.54-.61-.19-.94-.78-.86-.11-.64.96-.89,1.38-.52.33-.32,1.1-.2.52.26Zm4.49-.26c-1.38-.03-2.07-.28-2.59,1.12-2.59-1.95,2.73-2.21,2.59-1.12ZM62.4,5.01c-.15,1.46.25,4.16.26,5.53,1.33.27.28,1.26.52,2.24-2.36.94,2.16,1.04-.78,1.9.94,4.22-1.88,9.07.52,12.78-.61.95-.74-.02-1.12-.52-.43.42-1.08.84-.26,1.3-.28.58.8,1.32,1.12,1.64-2-.39-.81,1.48-1.47,2.51.4.18.36.86.34,1.21.39.65.72,1.08-.26,1.29.23,1.59-.87,3.9,1.12,4.49-.56.03-.94.87-1.12,1.3-.63-1.49-.92.96.26.78-.04,1.36,2.61,1.33,3.46,2.68,1.11,1.22.47,7.19-1.73,5.44-.57.38-.08.66.26.95-.62.54-3.84,1.41-1.73,2.07-.63.67.03.93.6,1.21.11.5-.38.41-.6.09,0,0-1.3,1.29-1.3,1.29.29,8.11-1.97,7.82-9.16,7.43-3.93-2.55,1.29-11.88-1.99-15.03-.49.15.04,1.02.09,1.3-.66-.01-1.26.14-1.04-.78-1.12-.91.96-1.45.69-2.42.27-.05.63,0,.78.26.63-1.13.66-2.39-.78-2.85.9-.42,1.19-.37,1.55-1.56-.14-.12-.97-.26-.78-.6,1.03.62.32-2.95.52-3.2-.18-.37-.52-.14-.78,0,.14-.29-.35-.42-.52-.52-.17-.71.83-.92-.09-1.38.56-.62-.03-1.77,1.12-1.47-.2-.78-.13-1.65.43-2.33-1.17-.53-.13-2.17-1.64-2.25.36-.31,1.39-.67.52-1.12.53-.75.59-2.36-.52-2.59,0-1.22,1.17-3.07-.17-4.06,2.94-5.55-1.98-17.01,7.17-19.78,1.74.5,6.3-.02,6.48,2.76Zm-13.04,28.33c-.59-.23.03.9-.43.78-.78-.74.12-2.24.43-.78Zm.78,12.87c-1.01.59.17,1.1.86,1.03.06-.76.05-1.22-.86-1.03Zm11.14,3.97c.15,0,.32.04.26-.17,0,0-.26.17-.26.17Zm2.59,2.68c-.31.03-.8-.55-.69-.86-.41.1-.67-.14-.78-.52.84.16,1.79.26,1.47,1.38Zm-.17-15.63l-.26.26c-.06-.19.19-.96-.26-.78-.23-1.94,1.06-.6.52.52Z"/>
  <path class="cls-1" d="m90.79,5.87c-.74,1.82.06,1.66,1.47,1.38.65,1.84-2.39,2.56.52,2.42-.18,1.24.93.74.6,2.33.9,1.34.4,1.85-1.12,1.64.97,1.69.75,3.31.52,5.27-.36-.95-.85.3-1.21.52,1.03-.29.77,1.55,1.38,2.07-.75.42-2-1.35-1.9,0,1.07.45,1.23.71.34,1.55,1.63.26,1.73,2.35.17.86-.54.42.25,1.41.43,1.81-.38.51-.11,1.86,0,2.42,1.2-1.06-.05.62-.17,1.04-1.76.98.12,2.12-.26,3.11.09.78-.08.97-.86.86,0,0,.52,6.05.52,6.05-1.37,2.41.64,2.61-.69,4.32.38.76,1.44,1.94.17,2.5-.02,1.51,1.17,4.42-.09,5.36,1.03.91-.83,3.21.17,4.4-1.21,5.42-2.36,7.01-8.55,5.79-11.32,1.69-1.43-32.44-3.37-40.33.54-.65.48-2.28-.78-1.81-.23.6-.23,1.25-.86.52.73-1.17,2.06-3.12-.43-2.68-.03-.45-.05-1.66.69-1.55.07-1.33-3.29-.04-4.15,0-.14-.49-.65-.83-.52,0-.6-.28-.55-1.28-.52-1.81-.61-.03-1.04-1.47-.52-1.9-.65-.95,3.23-3.07,2.59-1.3.67.3.76-.84.95-1.21.49-.32,1.92-1.32,2.51-1.38.74-.89,1.96-2.16,3.2-1.9-.35-1.45,1.44-1.86,1.64-3.2,1.19-1.17,3.62-.42,4.92-1.12,2.27.41,3.28,1.65,3.2,3.97Zm0,18.05v.26l.26-.52-.26.26Z"/>
  <path class="cls-1" d="m135.43,7.25c1.77,4.6,3.12,10.8.95,15.46.86,2.82-2.25,3.97-1.47,5.79.23,1.45,2.13.98,1.73,2.68,3.75,2.31,2.3,8.31,3.28,11.92,0,0-.43,3.28-.43,3.28.61.09.8.67.69,1.21l-.52-.6c1.11,8.12-9.67,19.91-16.58,12.87-2.42-5.67,2.72-7.25,5.18-10.97,1.13-5.71,1.38-12.8-3.72-15.98-.75.68-2.06.58-2.85,1.04-.27-.6-3.19-.45-3.54-.09-.84.08-1.92-.31-1.55,1.03-.37-.32-.46-.93-.86-1.21-.96.78-2.21,2.14-.95,3.28-.51.73-1.62,1.29-.78,2.42-.03.73-1.19.48-1.64.52-.13.71.09,1.69.78,2.07-.66.69-1.32,2.13-.52,2.94,0,0,0,2.33,0,2.33.81.36.42,1.3.17,1.9.45.25,1.74,1.15,1.81,1.73.34.18.86.47,1.21.09,1.44,1.57,5.7,1.41,5.53,4.58-.37,1.95.37,4.9-1.12,6.48-17.97,5.06-25.27-21.5-14.77-32.82-2.5-6.79-5.34-15.1-.69-21.85,2.7-3.64,12.92-9.77,15.2-3.28.34.29,1.21.29.95.95.67.06,1.41-2.8,1.64-3.2,4.87-1.02,10.1,1.31,12.87,5.44Zm-22.54,29.19c-.08,2.7.81.79.52-.52l-.52.52Zm10.28-25.91c-1.09.52-.19,2.32-1.55,1.55-.42-1,1.39-1.12.26-1.73,0,0,.26-.35.26-.35-1.83.14-.71-.16-1.21-1.29-.14.92-1.66,1.67-2.51,1.98.75.91-.57,1.98-.26,3.02,0,0-1.04,0-1.04,0,.22.66-.81,1-1.12.43-.59.3-.81,1.02-.69,1.64-.6.38-.93,1.2-.78,1.9.77-.26.43-1.29,1.64-.43-.75,1.64-.95.05-.6,1.98.78,1.16.43-.82,1.04-1.03,0,0,.43,2.07.43,2.07-.84-.03-3.35.78-1.21.78.69,2.01.85.7,2.07,1.38-.05.55-.87.69-1.3.78-.16.79.34.35.78.26.51.7,1.5,1.39,2.42,1.12-.14,1.69,1.89.43,2.85.69,6.59-.14,6.13-13.73.52-14.77Zm-6.3,14.08c.15.22.61.47.52,0,0,0-.52,0-.52,0Zm2.42-2.16c-.44-.33-.44-.54,0-.86.44.33.44.54,0,.86Zm-.26-8.2c-.09-.48.36-.22.52,0h-.52Zm1.3-7.95c.21.4.67.12.6-.26,0,0-.6.26-.6.26Z"/>
  <path class="cls-1" d="m179.65,22.71c-.4.89-.31,1.75.6,2.25-.42.5-.21,1.29-.95,1.47,0,0,.35,1.64.35,1.64.84-.12,2.09-.27,2.07-1.38,2.33-.27.39,1.89-.95,1.55-.22.95-1.31,1.87-.86.26-.78.11-.99.67-.86,1.38,1.94-.3,3.27.59.6,1.3-.07-.74-1.48-.89-1.38-1.55-.66.4-.63,1.21-.26,1.81-.83.72-.79,5.74.43,2.76,1.17,1.74-.34.84-.69,1.98-1.54,1.45,2.71,1.43,2.68,3.2-1.67-.58-1.98-1.92-3.54.52,4.15-.03.02.33,1.73,1.9-1.92.28-1.84,2.22-1.73,3.71,1.66,1.02-.75,3.33,1.04,3.11.3-.72.26-2.17,1.38-1.3-.09.96-2.17,2.19-2.85,2.68,1.32,2.94-1.35,7.79-.6,11.4-.87.01-3.46.79-4.15-.09-13.12,2.99-5.68-17.31-7.17-24.35,1.63-9.02-4.09-23.38,10.11-19,1.14,2.27,5.56,1.69,5.01,4.75Zm.26,20.3c-.37,1.28-1.31,2.48-2.68,1.55l1.9-.6c-.97-.71.2-2.63.78-.95Zm-.95,7.6c-.37.67-.45,1.39-1.12.43.37-.67.45-1.39,1.12-.43Zm-.95-21.51v.26c.12-.2.33-.63.26-.86l-.26.6Zm37.48-4.49c-.86.28-.14,1.29,0,1.81,5.01-.87-1.61,3.45,2.42,4.14.08.54.4,1.53.69,1.99-.44.23-.48.87-.43,1.3-.7.08-1.02.87-1.12,1.47-.26.28-.97.93-.78,1.38,1.13-.25,1.09.39,1.03,1.29-2.74.65,0,2.09-.26,3.71-.83.38-1.76,2.54-.26,1.9-.32-1.49.72-1.2,1.73-.78-2.06.57-1.08,2.4-1.73,3.63-.8-1.08-1.33-.36-.52.52-.73,1.17.48,2.49.52,3.71-1.48.23-.8,4.58-.17,5.44.16,9.39-4.22,7.15-11.49,6.99-3.23-2.54.78-8.63-1.73-11.4,1.25-1.02.58-5.24-.78-1.99-.46-1.06-1.96,0-2.42-.6.02-.94,1.32-.25,1.81-.78,1.95.41,1.88-1.62,2.59-2.59-.59-.67-1.12-.04-1.81-.09.08-.58-.34-1.68-.78-2.07,1.2-1.65-.53-.56-1.12,0-.56-.12-.14.8,0,1.04-.83-.04-2.8,1.42-.95,1.29,1.97,2.11-2.73,1.35-3.8,1.82-.55,1.12.98.85-.52,2.33.99-.57,1.2.66.52,1.12.44,9.73.12,15.49-11.49,10.71.01-5.2.07-10.44.26-15.72.48-.53.25-2.14.6-2.85-.64-.83-.71-2.13-.17-3.02-.67-.48-.86-1.04-.34-1.73-.84-.02-1.93-.93-2.42-1.55,1.24-.77-.1-.71-.09-1.73,1.31.15,1.49-1.64,0-1.21-1.1.93-1.72,2.09-3.11,2.42-1.27-.88.11-1.42,1.04-.95-.32-1.3.98-1.96,2.07-2.07.04-.26-.13-1.18.26-1.3-.18-.55.37-.66.78-.78-.67-.62-1.71-1.42-.78-2.33,2.83.29-.3-2.67,1.21-3.37-2.35-8.03,3.95-9.37,9.33-3.8.86.4.99-.49,2.07-.26.23,1.05,1.96,1.49,2.59.61,1.72.38.75,1.43.95,2.85.42-.26.86-1.2,1.04-1.64,1.3.03,1.87.68,2.85-.26-.53-.97-1.31-.08-2.16-.26-.49-.26.63-2.27.86-.78.47-2.99-.06,1.8,3.46-2.59,1.55.17,3.61.03,5.18.26.33.61,3,.87,2.16,1.81.99.62,3.52,1.66,3.2,2.94Zm-33.51,7.86c-.45-.04-1.04-.06-1.12.52-.13-.15-.38-.96-.69-.78.34.11,2.24-.76,1.81.26Zm0,12.87c-.78.21-.58-.44-.6-.95.78-.21.58.44.6.95Zm2.33-5.18c-.66.14-1.86-.69-1.04-1.29,0,0,1.04,1.29,1.04,1.29Zm-.52-9.59c.22.67.34,1.02,1.12.87-.31-.28-.56-1.75-1.12-.87Zm.86,6.39c.09.16.32.58.26.78.75-.21.5-1.44-.26-.78Zm.52-4.49v.26c.11-.12.21-.35.17-.52l-.17.26Zm13.13,9.5c-.06.68-.93.51-1.38.52-.11.44-1.92,2.01-.86,2.33.21-.4,1.86-1.17,2.25-1.38-.27-.98.74-.56,1.3-1.04l-1.3-.43Zm-1.55-16.67c.17.48.18,1,.78.52.17-.65-.34-.51-.78-.52Zm.52-.95c-.06.6.07.5.52.26.13-.38-.31-.23-.52-.26Zm1.9,24.53c.79,1.09-.43.88-1.12.52-.26.14-.59.37-.78,0,0,0,0-1.55,0-1.55.33.22,2.33.26,1.9,1.04Zm-.17,2.76c-.36.82-2.24.64-1.21-.17-.21-1.93.69-.6,1.21.17Zm-1.47-14.42h.26l-.26-.26v.26Zm0,3.37l.26.6c.02-.26.03-.73-.26-.86v.26Zm.78,5.09l-.26.26c.27.04.68-.03.86-.26h-.6Zm.86-11.06c-.13.47.64.27.78,0h-.78Zm1.21-8.81c0,.62.38.08.26-.26l-.26.26Zm1.9,20.12c1.08,2.66-2.06.57-1.38-1.03.62-.08,1.61.26,1.38,1.03Zm1.64-1.03h.26l-.26-.26v.26Zm12.61-19.09l-1.04-.35c.61-.61,1.2-.76,1.04.35Zm-.52,15.37h.52c-.2-.26-.32-.26-.52,0Zm.52-8.98c-.28,1.18.58,2.88.52.52,1.82.07.46-.81-.52-.52Zm2.16,3.97c-.7.2-.49-.43-.52-.86.7-.2.49.43.52.86Z"/>
  <path class="cls-1" d="m258.67,22.2c4.12,5.03,3.46,12.47,3.19,18.74-.68-.42-1.21,1.69-1.47,1.99-1.54-.52-5.29-.99-6.48.43-.59-.94-3.91-.58-4.75-.17-1.34-.61-3.28-1.49-4.41-.08-1.61-2.87-3.5,4.24-4.49,1.55,1.08-.52-.36-1.07.26-1.56.33-.53-1.79-.15-1.9-.26-.15.71.3,1.44.52,2.07-1.09.18-1.09.32-.26,1.03,1.32-.27.17.61.09,1.12,1.33,1.68.57-1.3,3.19-.6-.8.52-4.11,2.18-1.9,2.68,0,0-.61.86-.61.86-1.64.49,2.54,3.62,2.94,4.75.9-.04.23,1.73,1.3.95,1.56.07-.42.9-.95.86-.71,1.52.65,3.59-.95,4.66-22.15,7.75-24.19-44.66-2.16-43.7.93.82,1.38,1.98,1.21,3.28.75.51.1,1.72.95,2.16-1.13,1.43.92,1.84,1.99,1.64.41,1.44-2.6,3.72-.61,4.23.86-.13.22-1.42.17-1.9,2.63-.36-.14-7.29,1.99-8.98,3.68-2.48,10.78.57,13.13,4.23Zm-18.74,5.27l-.52.52,1.38-.52h-.86Zm.6,6.13c-1.08.65.7,1.06,1.21.52-.85.16-.2-.76-1.21-.52Zm.86-2.16c-.86,1.67.33.62.86,0h-.86Zm1.47-1.12c.92.12.33-.36,0-.69v.69Zm4.49,1.12c-.62-.7-1.59.04-2.07.52.55.44,1.11,1.48.35,1.99-.3-.47-1.25-1.18-1.73-1.47.52-2.74-2.28-.21-.26.52-1.29,2.09,2.28,1.68,3.02.69.8,1.11,1.02.29.95-.69,1.63-.05,1.08-1.52-.26-1.55Zm-3.37,18.48l-1.12-.78c.63-.81,1,.23,1.12.78Zm17.19-.26c-.46,4.27-3.06,7.77-6.22,10.37-2.66.29-9.64,5.05-9.67-.26-1.16-.73-.74-1.46,0-2.33,0,0,0-3.28,0-3.28,1.58-1.56,2.96-3.5,4.15-5.27-.03-.84,2-1.77,1.12-2.42.2-.78.53-.29.95,0,2.79.77,9.1-.77,9.67,3.19Zm-15.37-22.02c0-1.18-1.65,1.03-.78,1.55.4-.59,2.7-1.05.78-1.55Zm-.78-1.81c-.12.24.4.71.52.86.6-.53.19-1.04-.52-.86Zm1.21,4.32c.31-.4.37-.91,0-1.3v1.3Zm2.16-.26l-.52.43c.44.15,1.27-.27.52-.43Z"/>
  <path class="cls-2" d="m151.41,47.54c-3.77,0-6.83,3.06-6.83,6.83s3.06,6.83,6.83,6.83,6.83-3.06,6.83-6.83-3.06-6.83-6.83-6.83Zm-1.4,11.76l1.62-4.16h-4.18l5.37-5.7-1.62,4.16h4.18l-5.37,5.7Z"/>
</svg>